<svg xmlns="http://www.w3.org/2000/svg" viewBox="0 0 740 340" font-family="Helvetica, Arial, sans-serif" font-size="13">
  <rect width="740" height="340" fill="#fff"/>

  <!-- Arrow marker -->
  <defs>
    <marker id="arrow" viewBox="0 0 10 10" refX="9" refY="5" markerWidth="8" markerHeight="8" orient="auto-start-reverse">
      <path d="M 0 0 L 10 5 L 0 10 z" fill="#2c5f5c"/>
    </marker>
  </defs>

  <!-- Three ingredients -->
  <!-- Policies -->
  <rect x="30" y="30" width="190" height="140" rx="10" fill="#319795"/>
  <text x="125" y="75" text-anchor="middle" font-weight="bold" font-size="22" fill="#fff">Policies</text>
  <text x="125" y="100" text-anchor="middle" font-size="11" fill="#d4f0ef">Tax-benefit rules</text>
  <text x="125" y="117" text-anchor="middle" font-size="11" fill="#d4f0ef">&amp; parameters</text>
  <text x="125" y="142" text-anchor="middle" font-size="10" fill="#b0dfdd">(US &amp; UK country packages)</text>

  <!-- Households -->
  <rect x="240" y="30" width="190" height="140" rx="10" fill="#2a8a88"/>
  <text x="335" y="75" text-anchor="middle" font-weight="bold" font-size="22" fill="#fff">Households</text>
  <text x="335" y="100" text-anchor="middle" font-size="11" fill="#d4f0ef">Survey microdata</text>
  <text x="335" y="117" text-anchor="middle" font-size="11" fill="#d4f0ef">with calibrated weights</text>
  <text x="335" y="142" text-anchor="middle" font-size="10" fill="#b0dfdd">(CPS, Family Resources Survey)</text>

  <!-- Dynamics -->
  <rect x="450" y="30" width="190" height="140" rx="10" fill="#1f6e6b"/>
  <text x="545" y="75" text-anchor="middle" font-weight="bold" font-size="22" fill="#fff">Dynamics</text>
  <text x="545" y="100" text-anchor="middle" font-size="11" fill="#d4f0ef">Behavioral responses</text>
  <text x="545" y="117" text-anchor="middle" font-size="11" fill="#d4f0ef">to policy changes</text>
  <text x="545" y="142" text-anchor="middle" font-size="10" fill="#b0dfdd">(in country packages)</text>

  <!-- Arrows down to simulation -->
  <line x1="125" y1="170" x2="125" y2="205" stroke="#2c5f5c" stroke-width="2" marker-end="url(#arrow)"/>
  <line x1="335" y1="170" x2="335" y2="205" stroke="#2c5f5c" stroke-width="2" marker-end="url(#arrow)"/>
  <line x1="545" y1="170" x2="545" y2="205" stroke="#2c5f5c" stroke-width="2" marker-end="url(#arrow)"/>

  <!-- Simulation bar -->
  <rect x="30" y="210" width="610" height="50" rx="10" fill="#e6f4f3" stroke="#319795" stroke-width="2"/>
  <text x="335" y="241" text-anchor="middle" font-weight="bold" font-size="18" fill="#1a4a48">Simulation</text>

  <!-- Arrow down to outputs (same length as top arrows: 35px) -->
  <line x1="335" y1="260" x2="335" y2="295" stroke="#2c5f5c" stroke-width="2" marker-end="url(#arrow)"/>

  <!-- Outputs bar -->
  <rect x="30" y="300" width="610" height="30" rx="6" fill="#f0fafa" stroke="#319795" stroke-width="1.5"/>
  <text x="335" y="320" text-anchor="middle" font-size="12" fill="#1a4a48">Distributional impacts · Fiscal impacts · Regional breakdowns · Poverty rates · Inequality metrics</text>
</svg>
