<svg xmlns="http://www.w3.org/2000/svg" viewBox="0 0 740 320" font-family="Helvetica, Arial, sans-serif" font-size="13">
  <rect width="740" height="320" fill="#fff"/>

  <!-- Arrow marker -->
  <defs>
    <marker id="arrow" viewBox="0 0 10 10" refX="9" refY="5" markerWidth="8" markerHeight="8" orient="auto-start-reverse">
      <path d="M 0 0 L 10 5 L 0 10 z" fill="#2c5f5c"/>
    </marker>
  </defs>

  <!-- Three ingredients -->
  <!-- Policies -->
  <rect x="30" y="30" width="190" height="140" rx="10" fill="#319795"/>
  <text x="125" y="90" text-anchor="middle" font-weight="bold" font-size="22" fill="#fff">Policies</text>
  <text x="125" y="115" text-anchor="middle" font-size="11" fill="#d4f0ef">Tax-benefit rules</text>
  <text x="125" y="132" text-anchor="middle" font-size="11" fill="#d4f0ef">&amp; parameters</text>
  <text x="125" y="155" text-anchor="middle" font-size="10" fill="#b0dfdd">(US &amp; UK country packages)</text>

  <!-- Households -->
  <rect x="240" y="30" width="190" height="140" rx="10" fill="#2a8a88"/>
  <text x="335" y="90" text-anchor="middle" font-weight="bold" font-size="22" fill="#fff">Households</text>
  <text x="335" y="115" text-anchor="middle" font-size="11" fill="#d4f0ef">Survey microdata</text>
  <text x="335" y="132" text-anchor="middle" font-size="11" fill="#d4f0ef">with calibrated weights</text>
  <text x="335" y="155" text-anchor="middle" font-size="10" fill="#b0dfdd">(CPS, Family Resources Survey)</text>

  <!-- Dynamics -->
  <rect x="450" y="30" width="190" height="140" rx="10" fill="#1f6e6b"/>
  <text x="545" y="90" text-anchor="middle" font-weight="bold" font-size="22" fill="#fff">Dynamics</text>
  <text x="545" y="115" text-anchor="middle" font-size="11" fill="#d4f0ef">Behavioural responses</text>
  <text x="545" y="132" text-anchor="middle" font-size="11" fill="#d4f0ef">to policy changes</text>
  <text x="545" y="155" text-anchor="middle" font-size="10" fill="#b0dfdd">(labour supply elasticities)</text>

  <!-- Arrows down -->
  <line x1="125" y1="170" x2="125" y2="205" stroke="#2c5f5c" stroke-width="2" marker-end="url(#arrow)"/>
  <line x1="335" y1="170" x2="335" y2="205" stroke="#2c5f5c" stroke-width="2" marker-end="url(#arrow)"/>
  <line x1="545" y1="170" x2="545" y2="205" stroke="#2c5f5c" stroke-width="2" marker-end="url(#arrow)"/>

  <!-- Simulation bar -->
  <rect x="30" y="210" width="610" height="50" rx="10" fill="#e6f4f3" stroke="#319795" stroke-width="2"/>
  <text x="335" y="241" text-anchor="middle" font-weight="bold" font-size="18" fill="#1a4a48">Simulation</text>

  <!-- Arrow down to outputs -->
  <line x1="335" y1="260" x2="335" y2="280" stroke="#2c5f5c" stroke-width="2" marker-end="url(#arrow)"/>

  <!-- Outputs bar -->
  <rect x="30" y="285" width="610" height="30" rx="6" fill="#f0fafa" stroke="#319795" stroke-width="1.5"/>
  <text x="335" y="305" text-anchor="middle" font-size="12" fill="#1a4a48">Decile impacts · Poverty rates · Inequality metrics · Regional breakdowns · Budgetary impacts</text>
</svg>
